<svg width="218" height="111" viewBox="0 0 218 111" fill="none" xmlns="http://www.w3.org/2000/svg">
<g clip-path="url(#clip0_485_1526)">
<path d="M67.7878 40.3574C67.7878 42.6127 68.0348 44.441 68.4656 45.7819C69.0127 47.2904 69.6713 48.7569 70.4361 50.1697C70.7441 50.6571 70.8669 51.1446 70.8669 51.5716C70.8669 52.1806 70.4978 52.7903 69.6971 53.3999L65.8174 55.9594C65.263 56.3253 64.7087 56.508 64.2153 56.508C63.5999 56.508 62.9838 56.2031 62.3677 55.6546C61.5372 54.7727 60.7949 53.8135 60.151 52.7903C59.5349 51.755 58.9188 50.596 58.2417 49.1948C53.4372 54.8012 47.4015 57.6046 40.1346 57.6051C34.9616 57.6051 30.8348 56.142 27.8167 53.2173C24.7993 50.2912 23.2598 46.3908 23.2598 41.5156C23.2598 36.3355 25.1074 32.1304 28.8644 28.9612C32.6206 25.7921 37.6098 24.2075 43.9533 24.2075C46.0473 24.2075 48.2029 24.3901 50.4814 24.695C52.7606 24.9998 55.1008 25.4872 57.5645 26.0358V21.5869C57.5645 16.9547 56.5786 13.7251 54.6692 11.8357C52.6988 9.94633 49.3727 9.03182 44.6305 9.03182C42.4748 9.03182 40.2581 9.27626 37.9789 9.82482C35.6997 10.3734 33.483 11.0434 31.3274 11.8968C30.3422 12.3232 29.6033 12.5669 29.1717 12.6891C28.7401 12.8114 28.4328 12.8718 28.1865 12.8718C27.3241 12.8718 26.8932 12.2621 26.8932 10.9823V7.9958C26.8932 7.0209 27.0168 6.28972 27.3241 5.86338C27.6321 5.43633 28.1865 5.00999 29.0489 4.58365C31.2043 3.48604 33.7909 2.57177 36.8085 1.84083C39.8273 1.04855 43.0299 0.683318 46.4171 0.683318C53.7465 0.683318 59.1048 2.32829 62.5537 5.61966C65.9409 8.91031 67.6657 13.9078 67.6657 20.612V40.3574H67.7878ZM42.7829 49.6211C44.8158 49.6211 46.9097 49.2559 49.1264 48.524C51.3438 47.7928 53.3149 46.4519 54.9773 44.6236C55.9632 43.4661 56.7021 42.1864 57.0712 40.7233C57.441 39.261 57.6873 37.4931 57.6873 35.421V32.8616C55.8195 32.412 53.9278 32.0661 52.0209 31.8255C50.1008 31.5845 48.1673 31.4622 46.2318 31.4596C42.105 31.4596 39.0876 32.2519 37.0555 33.8976C35.0233 35.5433 34.0374 37.859 34.0374 40.9059C34.0374 43.7702 34.7763 45.9034 36.3159 47.3665C37.7944 48.8899 39.9501 49.6211 42.7829 49.6211ZM92.2383 56.2031C91.1296 56.2031 90.3907 56.0205 89.8981 55.5934C89.4055 55.2282 88.9739 54.3748 88.6049 53.2173L74.132 6.10711C73.7615 4.88776 73.5769 4.09548 73.5769 3.66914C73.5769 2.69423 74.0695 2.14495 75.0554 2.14495H81.0909C82.2606 2.14495 83.062 2.32829 83.4929 2.75463C83.9855 3.12057 84.3553 3.97397 84.7244 5.13149L95.0712 45.477L104.679 5.13149C104.987 3.91286 105.357 3.12057 105.849 2.75463C106.342 2.3894 107.205 2.14567 108.313 2.14567H113.24C114.41 2.14567 115.211 2.32829 115.703 2.75463C116.196 3.12057 116.627 3.97397 116.873 5.13149L126.605 45.9645L137.259 5.13149C137.628 3.91286 138.06 3.12057 138.49 2.75463C138.983 2.3894 139.784 2.14567 140.892 2.14567H146.62C147.606 2.14567 148.16 2.63312 148.16 3.66914C148.16 3.97397 148.098 4.27881 148.037 4.64404C147.975 5.00927 147.852 5.49744 147.606 6.16822L132.762 53.2777C132.393 54.497 131.962 55.2893 131.469 55.6546C130.976 56.0205 130.176 56.2642 129.13 56.2642H123.833C122.663 56.2642 121.862 56.0816 121.369 55.6546C120.876 55.2282 120.445 54.4359 120.199 53.2173L110.652 13.9078L101.168 53.1555C100.86 54.3748 100.49 55.1671 99.9979 55.5934C99.5053 56.0205 98.6429 56.2031 97.5349 56.2031H92.2383ZM171.379 57.8488C168.177 57.8488 164.974 57.4829 161.895 56.7517C158.815 56.0205 156.414 55.2275 154.812 54.3144C153.826 53.7651 153.149 53.1562 152.903 52.6076C152.663 52.0696 152.538 51.4888 152.533 50.9008V47.7928C152.533 46.5131 153.026 45.9034 153.95 45.9034C154.327 45.9048 154.702 45.9667 155.059 46.0867C155.428 46.2089 155.982 46.4519 156.598 46.6957C158.773 47.643 161.044 48.3581 163.373 48.8288C165.785 49.3128 168.24 49.5578 170.702 49.56C174.582 49.56 177.6 48.8899 179.694 47.5491C181.788 46.2082 182.896 44.2584 182.896 41.7593C182.896 40.0533 182.342 38.6513 181.233 37.4931C180.125 36.3348 178.031 35.2995 175.013 34.3239L166.083 31.5818C161.587 30.1799 158.261 28.1078 156.228 25.365C154.196 22.6833 153.149 19.6975 153.149 16.5284C153.149 13.9689 153.704 11.7138 154.812 9.76299C155.92 7.81319 157.399 6.10711 159.247 4.76626C161.094 3.3643 163.188 2.32829 165.652 1.59711C168.115 0.865933 170.701 0.561096 173.411 0.561096C174.766 0.561096 176.183 0.622207 177.538 0.804822C178.955 0.987436 180.248 1.23116 181.541 1.47489C182.773 1.77972 183.943 2.08456 185.052 2.45051C186.16 2.81574 187.022 3.18121 187.639 3.54691C188.501 4.03508 189.116 4.52253 189.486 5.0711C189.856 5.55855 190.041 6.22885 190.041 7.08201V9.94633C190.041 11.2261 189.548 11.8968 188.624 11.8968C188.131 11.8968 187.331 11.6524 186.284 11.165C182.773 9.58038 178.831 8.78809 174.459 8.78809C170.948 8.78809 168.177 9.33665 166.267 10.4949C164.359 11.6524 163.373 13.4203 163.373 15.9187C163.373 17.6255 163.989 19.0878 165.22 20.2461C166.452 21.4043 168.731 22.5618 171.995 23.5978L180.741 26.3406C185.175 27.7426 188.377 29.6924 190.287 32.1908C192.196 34.6891 193.12 37.5542 193.12 40.7233C193.12 43.3439 192.565 45.7208 191.518 47.7928C190.41 49.8648 188.932 51.6931 187.022 53.1562C185.113 54.6797 182.835 55.7768 180.186 56.5691C177.415 57.4225 174.52 57.8488 171.379 57.8488Z" fill="white"/>
<path d="M183.019 87.4676C162.757 102.277 133.317 110.139 108.005 110.139C72.5299 110.139 40.5661 97.1577 16.4236 75.5833C14.5142 73.8772 16.2383 71.5615 18.5168 72.9016C44.6304 87.8947 76.8412 96.975 110.161 96.975C132.64 96.975 157.337 92.3435 180.064 82.8361C183.451 81.3119 186.345 85.0303 183.019 87.4676ZM191.457 77.9601C188.871 74.6695 174.335 76.3756 167.746 77.1679C165.774 77.4123 165.466 75.7055 167.253 74.4258C178.831 66.3807 197.863 68.6971 200.079 71.3781C202.297 74.1209 199.463 92.9525 188.624 101.973C186.961 103.374 185.36 102.643 186.099 100.815C188.562 94.7808 194.044 81.1904 191.457 77.9601Z" fill="#FF9900"/>
</g>
<defs>
<clipPath id="clip0_485_1526">
<rect width="217" height="110" fill="white" transform="translate(0.189697 0.5)"/>
</clipPath>
</defs>
</svg>
