<svg width="25" height="25" viewBox="0 0 25 25" fill="none" xmlns="http://www.w3.org/2000/svg">
<path d="M18.4176 4.81535L17.8658 4.26356C17.697 4.0948 17.4681 4 17.2294 4C16.9907 4 16.7618 4.0948 16.593 4.26356L14.2652 6.59137C14.0964 6.76018 14.0016 6.9891 14.0016 7.22779C14.0016 7.46648 14.0964 7.6954 14.2652 7.8642L15.8792 9.47819C16.0103 9.60929 16.0969 9.77841 16.1264 9.9615C16.156 10.1446 16.1271 10.3323 16.0439 10.4981C15.0599 12.4649 13.4649 14.0599 11.4981 15.0439C11.3322 15.127 11.1444 15.1558 10.9613 15.126C10.7783 15.0963 10.6092 15.0096 10.4782 14.8783L8.8642 13.2652C8.6954 13.0964 8.46648 13.0016 8.22779 13.0016C7.9891 13.0016 7.76018 13.0964 7.59137 13.2652L5.26356 15.593C5.0948 15.7618 5 15.9907 5 16.2294C5 16.4681 5.0948 16.697 5.26356 16.8658L5.81535 17.4176C6.73461 18.3371 7.95469 18.8941 9.25159 18.9864C10.5485 19.0786 11.8352 18.7 12.8753 17.9199L13.9627 17.1035C15.5322 15.9264 16.9264 14.5322 18.1035 12.9627L18.9199 11.8753C19.7 10.8352 20.0786 9.54849 19.9864 8.2516C19.8941 6.9547 19.3371 5.73461 18.4176 4.81535Z" fill="#F8F8F8"/>
</svg>
