<svg width="100" height="100" viewBox="0 0 100 100" fill="none" xmlns="http://www.w3.org/2000/svg">
<path d="M78.5313 36.9573C77.6054 36.6413 76.6717 36.3486 75.731 36.0793C75.889 35.437 76.0345 34.8024 76.1636 34.179C78.2836 23.9421 76.8977 15.695 72.164 12.9797C67.6254 10.3766 60.2029 13.0909 52.7066 19.5807C51.9678 20.2214 51.2454 20.8806 50.5401 21.5577C50.0679 21.1075 49.5874 20.666 49.0988 20.2335C41.2423 13.2944 33.3675 10.3698 28.6389 13.0929C24.1043 15.7041 22.7616 23.457 24.6702 33.1588C24.8601 34.1196 25.0745 35.0755 25.3132 36.0255C24.1985 36.3406 23.1229 36.676 22.0935 37.033C12.8824 40.2277 7 45.2341 7 50.4271C7 55.7905 13.315 61.1701 22.9088 64.4321C23.6866 64.6954 24.4708 64.9395 25.2608 65.164C25.0043 66.1873 24.7766 67.2174 24.5777 68.2533C22.7582 77.7867 24.1791 85.3563 28.7014 87.951C33.3722 90.6305 41.2117 87.8766 48.845 81.2387C49.4639 80.699 50.0692 80.1441 50.6604 79.5744C51.4242 80.3075 52.2084 81.0193 53.0121 81.7089C60.4064 88.0382 67.709 90.594 72.2269 87.9922C76.8933 85.3049 78.41 77.1731 76.441 67.2797C76.2858 66.5046 76.1119 65.7333 75.9193 64.9666C76.4698 64.8043 77.0102 64.6373 77.537 64.4636C87.5107 61.1766 94 55.8622 94 50.4271C94 45.2152 87.9277 40.175 78.5313 36.9573ZM76.3682 60.9545C75.892 61.1109 75.4049 61.2624 74.9069 61.4092C73.8058 57.9416 72.32 54.2547 70.5015 50.445C72.2367 46.7263 73.6655 43.0864 74.7356 39.6415C75.6257 39.8977 76.4892 40.1679 77.3218 40.4528C85.3727 43.2101 90.2835 47.2862 90.2835 50.4271C90.2835 53.7726 84.9799 58.1157 76.3682 60.9545ZM72.7951 67.9977C73.6658 72.3723 73.7898 76.3276 73.2131 79.4199C72.6952 82.1985 71.6532 84.0507 70.3645 84.7928C67.623 86.3716 61.7597 84.3195 55.4362 78.9064C54.6887 78.2652 53.9593 77.6034 53.2487 76.9219C55.7003 74.255 58.1502 71.1546 60.5414 67.711C64.7473 67.3398 68.7207 66.7327 72.3241 65.9041C72.5019 66.6167 72.659 67.3146 72.7951 67.9977ZM36.6602 84.52C33.9816 85.4608 31.848 85.4878 30.5583 84.7482C27.8141 83.1738 26.6732 77.0957 28.2294 68.9429C28.4144 67.9795 28.6262 67.0214 28.8645 66.0697C32.4281 66.854 36.3727 67.4179 40.5885 67.758C42.9959 71.1275 45.5165 74.2245 48.0569 76.9365C47.517 77.4561 46.9643 77.9625 46.3994 78.4551C43.0238 81.3902 39.6413 83.4726 36.6602 84.52ZM24.1111 60.9338C19.8689 59.4913 16.3654 57.6167 13.9641 55.5711C11.8061 53.7331 10.7169 51.9078 10.7169 50.4271C10.7169 47.2757 15.4397 43.2561 23.3169 40.5242C24.2729 40.1929 25.2734 39.8802 26.3116 39.5867C27.4005 43.1094 28.8285 46.7926 30.5519 50.517C28.8061 54.2966 27.3577 58.0387 26.2583 61.6029C25.5372 61.3974 24.8212 61.1743 24.1111 60.9338ZM28.3177 32.4485C26.6827 24.1365 27.7685 17.8664 30.5012 16.2927C33.4116 14.6166 39.8476 17.0063 46.6312 22.9982C47.0736 23.3898 47.5088 23.7893 47.9366 24.1967C45.4088 26.8968 42.9113 29.9708 40.5252 33.3204C36.4335 33.6976 32.5168 34.3034 28.9158 35.1151C28.6939 34.2315 28.4945 33.3421 28.3177 32.4485ZM65.8456 41.6672C64.9951 40.2057 64.113 38.7626 63.2 37.3389C65.9758 37.6882 68.6354 38.1516 71.1329 38.7182C70.3832 41.109 69.4487 43.6083 68.3486 46.1709C67.5445 44.6532 66.71 43.1517 65.8456 41.6672ZM50.5418 26.8393C52.256 28.6868 53.9729 30.7494 55.6616 32.9874C52.2359 32.8264 48.8046 32.8257 45.3789 32.9853C47.0693 30.768 48.8008 28.7081 50.5418 26.8393ZM35.1397 41.6922C34.2862 43.1647 33.4672 44.6569 32.6837 46.1675C31.6016 43.6141 30.6756 41.1033 29.9194 38.6787C32.4016 38.1263 35.0487 37.6746 37.8068 37.3318C36.8837 38.7642 35.9944 40.2183 35.1397 41.6922ZM37.886 63.7851C35.0364 63.4687 32.3496 63.0403 29.8681 62.5028C30.6361 60.0349 31.5826 57.4707 32.6881 54.8625C33.4748 56.3742 34.2971 57.8673 35.1544 59.3405C36.0359 60.8551 36.9487 62.3385 37.886 63.7851ZM50.6444 74.2752C48.8827 72.3848 47.1257 70.2932 45.4098 68.0437C47.0757 68.1086 48.7739 68.1417 50.5 68.1417C52.2733 68.1417 54.0262 68.1022 55.7516 68.0258C54.0575 70.3158 52.3471 72.4105 50.6444 74.2752ZM68.3836 54.7293C69.5465 57.3662 70.5266 59.9169 71.3049 62.3426C68.7826 62.9152 66.0591 63.3764 63.1894 63.7188C64.109 62.2687 64.9995 60.8006 65.8603 59.3152C66.7355 57.8054 67.5768 56.2764 68.3836 54.7293ZM62.6409 57.468C61.323 59.7453 59.931 61.9794 58.4673 64.1668C55.8157 64.3537 53.1582 64.4465 50.5 64.445C47.7925 64.445 45.159 64.3611 42.6231 64.1975C41.121 62.0153 39.7025 59.7773 38.3706 57.4883C37.0449 55.2115 35.8069 52.8854 34.6589 50.515C35.804 48.1441 37.0386 45.8169 38.3598 43.5384C39.6803 41.2592 41.0871 39.031 42.5779 36.8582C45.1651 36.6635 47.8183 36.5621 50.4997 36.5621C53.1933 36.5621 55.8502 36.6645 58.4367 36.8606C59.9124 39.0302 61.3106 41.2509 62.6287 43.5188C63.9541 45.7924 65.2049 48.1082 66.3792 50.4626C65.217 52.8411 63.9701 55.1777 62.6409 57.468ZM70.3078 16.1821C73.2209 17.8535 74.354 24.5935 72.5236 33.4322C72.4062 33.9966 72.2759 34.5702 72.1328 35.153C68.5229 34.3241 64.6035 33.7078 60.4999 33.3247C58.1094 29.9383 55.6323 26.8596 53.1457 24.1943C53.7974 23.5694 54.4646 22.9607 55.1467 22.3687C61.5697 16.8086 67.5727 14.6132 70.3078 16.1821ZM50.5 42.6989C54.7905 42.6989 58.2688 46.159 58.2688 50.4271C58.2688 54.6952 54.7905 58.1553 50.5 58.1553C46.2095 58.1553 42.7312 54.6952 42.7312 50.4271C42.7312 46.159 46.2095 42.6989 50.5 42.6989Z" fill="#00D8FF"/>
</svg>
