<svg width="134" height="100" viewBox="0 0 134 100" fill="none" xmlns="http://www.w3.org/2000/svg">
<g clip-path="url(#clip0_364_1134)">
<path d="M77.7667 77.3746C50.133 77.3746 26.648 63.5337 26.648 46.9534C26.648 30.3731 47.3698 16.5803 75.0035 16.5803C109.903 16.5803 126.077 30.0057 126.077 46.586C126.077 63.1663 108.25 77.3746 77.7667 77.3746ZM66.7133 0C30.7895 0 0.39209 19.3435 0.39209 44.214C0.39209 67.7031 30.6056 87.2031 66.5299 87.2031C102.454 87.2031 133.035 69.0845 133.035 44.214C133.035 19.3435 102.637 0 66.7133 0Z" fill="url(#paint0_linear_364_1134)"/>
<path d="M55.2864 26.8545V99.968H77.3812V71.5353C82.905 71.5353 86.1952 70.3291 89.8092 76.9509C95.333 86.4286 102.238 99.968 102.238 99.968H128.475C128.475 99.968 111.904 72.8892 110.523 71.5353C107.977 68.827 104.999 68.827 100.857 67.4732C109.142 66.1193 116.867 62.6814 119.552 55.3156C121.9 48.5462 121.624 39.9348 116.592 34.1602C112.234 29.5908 107.762 26.8545 96.7138 26.8545H55.2864ZM77.3812 42.0814H91.8807C95.319 42.0814 98.0947 45.4664 98.0947 48.8509C98.0947 52.2358 95.333 55.6208 91.8807 55.6208H77.3812V42.0814Z" fill="#2165B6"/>
</g>
<defs>
<linearGradient id="paint0_linear_364_1134" x1="5037.22" y1="1482.37" x2="9115.05" y2="8406.16" gradientUnits="userSpaceOnUse">
<stop stop-color="#C9CBCE"/>
<stop offset="1" stop-color="#7B7A81"/>
</linearGradient>
<clipPath id="clip0_364_1134">
<rect width="132.642" height="100" fill="white" transform="translate(0.39209)"/>
</clipPath>
</defs>
</svg>
