<svg width="101" height="100" viewBox="0 0 101 100" fill="none" xmlns="http://www.w3.org/2000/svg">
<g clip-path="url(#clip0_364_1131)">
<path d="M49.771 0.0283203C24.3467 0.0283203 25.9341 11.0538 25.9341 11.0538L25.9624 22.4766H50.2243V25.906H16.3259C16.3259 25.906 0.0568848 24.0609 0.0568848 49.7138C0.0568848 75.3675 14.2569 74.4577 14.2569 74.4577H22.7314V62.5534C22.7314 62.5534 22.2745 48.3534 36.7047 48.3534H60.7683C60.7683 48.3534 74.2879 48.5719 74.2879 35.2871V13.3217C74.2879 13.3217 76.3412 0.0283203 49.771 0.0283203ZM36.393 7.70989C36.9663 7.70937 37.5341 7.82192 38.0639 8.04108C38.5937 8.26025 39.075 8.58173 39.4804 8.98713C39.8858 9.39253 40.2073 9.8739 40.4265 10.4037C40.6456 10.9335 40.7582 11.5013 40.7577 12.0746C40.7582 12.6479 40.6456 13.2157 40.4265 13.7455C40.2073 14.2753 39.8858 14.7567 39.4804 15.1621C39.075 15.5675 38.5937 15.8889 38.0639 16.1081C37.5341 16.3273 36.9663 16.4398 36.393 16.4393C35.8196 16.4398 35.2518 16.3273 34.7221 16.1081C34.1923 15.8889 33.7109 15.5675 33.3055 15.1621C32.9001 14.7567 32.5786 14.2753 32.3595 13.7455C32.1403 13.2157 32.0277 12.6479 32.0283 12.0746C32.0277 11.5013 32.1403 10.9335 32.3595 10.4037C32.5786 9.8739 32.9001 9.39253 33.3055 8.98713C33.7109 8.58173 34.1923 8.26025 34.7221 8.04108C35.2518 7.82192 35.8196 7.70937 36.393 7.70989Z" fill="url(#paint0_linear_364_1131)"/>
<path d="M50.493 99.6573C75.9173 99.6573 74.3299 88.6318 74.3299 88.6318L74.3016 77.2094H50.0393V73.78H83.9377C83.9377 73.78 100.207 75.6251 100.207 49.9714C100.207 24.3181 86.0067 25.2279 86.0067 25.2279H77.5322V37.1318C77.5322 37.1318 77.9891 51.3318 63.5589 51.3318H39.4954C39.4954 51.3318 25.9757 51.1134 25.9757 64.3985V86.3643C25.9757 86.3643 23.9228 99.6573 50.4926 99.6573M63.8706 91.9765C63.2973 91.977 62.7295 91.8645 62.1997 91.6453C61.6699 91.4261 61.1886 91.1047 60.7832 90.6992C60.3778 90.2938 60.0563 89.8125 59.8371 89.2827C59.618 88.7529 59.5054 88.1851 59.5059 87.6118C59.5054 87.0384 59.6179 86.4706 59.837 85.9408C60.0562 85.4109 60.3776 84.9295 60.783 84.5241C61.1884 84.1186 61.6698 83.7971 62.1996 83.5779C62.7295 83.3587 63.2973 83.2462 63.8706 83.2467C64.444 83.2462 65.0118 83.3587 65.5416 83.5779C66.0713 83.797 66.5527 84.1185 66.9581 84.5239C67.3635 84.9293 67.685 85.4107 67.9042 85.9405C68.1233 86.4703 68.2359 87.0381 68.2354 87.6114C68.2359 88.1847 68.1233 88.7525 67.9042 89.2823C67.685 89.8121 67.3635 90.2935 66.9581 90.6989C66.5527 91.1043 66.0713 91.4257 65.5416 91.6449C65.0118 91.8641 64.444 91.977 63.8706 91.9765Z" fill="url(#paint1_linear_364_1131)"/>
</g>
<defs>
<linearGradient id="paint0_linear_364_1131" x1="962.493" y1="896.132" x2="5925.61" y2="5809.74" gradientUnits="userSpaceOnUse">
<stop stop-color="#387EB8"/>
<stop offset="1" stop-color="#366994"/>
</linearGradient>
<linearGradient id="paint1_linear_364_1131" x1="1446.53" y1="1556.99" x2="6776.35" y2="6595.44" gradientUnits="userSpaceOnUse">
<stop stop-color="#FFE052"/>
<stop offset="1" stop-color="#FFC331"/>
</linearGradient>
<clipPath id="clip0_364_1131">
<rect width="100.392" height="100" fill="white"/>
</clipPath>
</defs>
</svg>
