<svg width="125" height="125" viewBox="0 0 125 125" fill="none" xmlns="http://www.w3.org/2000/svg">
<path fill-rule="evenodd" clip-rule="evenodd" d="M85.9746 41.8086C87.542 46.3428 88.6709 50.9717 89.042 55.7695C89.5029 61.7217 89.292 67.6318 88.0371 73.4863C88.0029 73.6475 87.9307 73.7988 87.877 73.9551C87.4834 73.9561 87.082 73.9072 86.6973 73.9668C83.4463 74.4775 80.1982 75.0068 76.9502 75.5332C73.5928 76.0771 70.2305 76.5996 66.8789 77.1807C65.6914 77.3857 64.2217 77.1406 63.7422 78.7832C63.7285 78.8281 63.5918 78.8359 63.5127 78.8613L63.6748 69.0459L63.5098 45.3623L65.0742 45.0937C67.6328 44.6748 70.1914 44.25 72.752 43.8428C75.8076 43.3574 78.8662 42.8857 81.9238 42.4121C83.2725 42.2021 84.6231 42.0098 85.9746 41.8086Z" fill="#439934"/>
<path fill-rule="evenodd" clip-rule="evenodd" d="M60.2822 107.475C58.6318 106.056 56.9238 104.699 55.3418 103.207C46.8291 95.1777 40.6025 85.7275 37.5361 74.334C36.6914 71.1982 36.1279 68.0117 35.9472 64.7715C35.8203 62.5039 35.6367 60.2158 35.7968 57.96C36.2236 51.96 37.0908 46.0176 38.8506 40.2383L38.9472 40.1035C39.1181 40.3311 39.3642 40.5322 39.4511 40.7891C41.1686 45.8477 42.875 50.9098 44.5703 55.9756C49.9004 71.8936 55.2236 87.8154 60.5625 103.729C60.667 104.04 60.9375 104.295 61.1318 104.575L60.2822 107.475Z" fill="#45A538"/>
<path fill-rule="evenodd" clip-rule="evenodd" d="M85.9746 41.8086C84.6231 42.0098 83.2715 42.2021 81.9229 42.4102C78.8653 42.8838 75.8067 43.3555 72.751 43.8408C70.1905 44.248 67.6319 44.6729 65.0733 45.0918L63.5088 45.3604L63.4971 44.3398C63.4453 43.501 63.3565 42.6631 63.3467 41.8242C63.2793 36.4746 63.2373 31.125 63.1709 25.7754C63.1299 22.4268 63.0684 19.0791 63 15.7314C62.958 13.6514 62.9131 11.5703 62.8194 9.49316C62.7686 8.37695 62.5889 7.2666 62.5157 6.15039C62.4746 5.50879 62.5313 4.8623 62.544 4.21777C63.3418 5.76367 64.1221 7.32129 64.9424 8.85547C66.2383 11.2812 68.3028 13.0684 70.1612 15.0186C77.5078 22.7256 82.7237 31.6865 85.9746 41.8086Z" fill="#46A037"/>
<path fill-rule="evenodd" clip-rule="evenodd" d="M63.5117 78.8603C63.5908 78.8349 63.7285 78.8271 63.7412 78.7822C64.2207 77.1396 65.6904 77.3847 66.8779 77.1797C70.2295 76.5996 73.5918 76.0761 76.9492 75.5322C80.1973 75.0058 83.4453 74.4765 86.6963 73.9658C87.0811 73.9052 87.4824 73.955 87.876 73.9541C87.2686 76.122 86.79 78.3369 86.0195 80.4453C85.1445 82.8369 84.0859 85.1709 82.9619 87.459C81.2803 90.8724 79.1976 94.0731 76.7578 96.9931C74.8838 99.247 72.7949 101.33 70.7012 103.388C69.5439 104.525 68.1797 105.452 66.9102 106.475L66.5811 106.25L65.3955 105.236L64.1689 102.548C63.3311 99.4116 62.874 96.1859 62.8076 92.9404L62.8301 92.3926L62.9971 90.0234C63.0527 89.2148 63.127 88.4072 63.1611 87.5967C63.2871 84.6845 63.3965 81.7724 63.5117 78.8603Z" fill="#409433"/>
<path fill-rule="evenodd" clip-rule="evenodd" d="M63.5117 78.8604C63.3965 81.7725 63.2871 84.6846 63.1631 87.5977C63.1289 88.4082 63.0547 89.2158 62.999 90.0244L62.252 90.3066C60.5928 85.4219 58.9326 80.5889 57.3086 75.7432C54.623 67.7266 51.9697 59.6973 49.2881 51.6787C47.1222 45.2065 44.9412 38.7394 42.7451 32.2773C42.6426 31.9746 42.3477 31.7383 42.1426 31.4707L46.9238 22.6797C47.0879 22.9648 47.3047 23.2314 47.4082 23.5381C49.6226 30.0831 51.8257 36.632 54.0176 43.1846C56.8652 51.71 59.6953 60.2422 62.541 68.7686C62.6543 69.1094 62.8418 69.4238 63.0205 69.8057L63.6748 69.0439L63.5117 78.8604Z" fill="#4FAA41"/>
<path fill-rule="evenodd" clip-rule="evenodd" d="M42.1436 31.4717C42.3486 31.7393 42.6426 31.9756 42.7461 32.2783C44.9421 38.7404 47.1231 45.2075 49.2891 51.6797C51.9707 59.6982 54.624 67.7275 57.3096 75.7441C58.9326 80.5889 60.5928 85.4228 62.2529 90.3076L63 90.0254L62.833 92.3945L62.6816 92.9404C62.4219 95.5342 62.2031 98.1338 61.8867 100.722C61.7275 102.019 61.3896 103.292 61.1328 104.576C60.9395 104.296 60.668 104.041 60.5635 103.73C55.2246 87.8154 49.9014 71.8945 44.5713 55.9766C42.8756 50.9108 41.1692 45.8486 39.4521 40.79C39.3652 40.5332 39.1201 40.332 38.9482 40.1045L42.1436 31.4717Z" fill="#4AA73C"/>
<path fill-rule="evenodd" clip-rule="evenodd" d="M63.6738 69.0449L63.0195 69.8066C62.8408 69.4248 62.6533 69.1094 62.54 68.7695C59.6953 60.2432 56.8643 51.7109 54.0166 43.1855C51.8247 36.6329 49.6216 30.0841 47.4072 23.5391C47.3047 23.2324 47.0879 22.9648 46.9229 22.6807L52.8359 14.9023C53.0225 15.1514 53.2881 15.373 53.3848 15.6533C55.0254 20.4593 56.654 25.2699 58.2705 30.085C59.7812 34.5811 61.2695 39.084 62.7979 43.5742C62.9004 43.875 63.2568 44.0879 63.4951 44.3418L63.5068 45.3623C63.5635 53.2555 63.6191 61.1497 63.6738 69.0449Z" fill="#57AE47"/>
<path fill-rule="evenodd" clip-rule="evenodd" d="M63.4971 44.3398C63.2588 44.0859 62.9023 43.873 62.7998 43.5723C61.2715 39.082 59.7832 34.5791 58.2725 30.083C56.6559 25.2686 55.0273 20.458 53.3867 15.6514C53.29 15.3711 53.0244 15.1494 52.8379 14.9004C54.7607 13.0176 56.624 11.0674 58.624 9.27149C60.4023 7.67578 61.832 5.96484 61.8975 3.44336C61.9004 3.33887 61.9551 3.23438 62.0391 2.94141L62.5459 4.2168C62.5332 4.8623 62.4756 5.50781 62.5176 6.14941C62.5908 7.26562 62.7705 8.37598 62.8213 9.49219C62.915 11.5693 62.96 13.6504 63.002 15.7305C63.0693 19.0781 63.1309 22.4258 63.1729 25.7744C63.2383 31.124 63.2813 36.4736 63.3486 41.8232C63.3564 42.6641 63.4443 43.501 63.4971 44.3398Z" fill="#60B24F"/>
<path fill-rule="evenodd" clip-rule="evenodd" d="M61.1309 104.575C61.3877 103.291 61.7256 102.017 61.8848 100.721C62.2021 98.1338 62.4199 95.5332 62.6797 92.9394L62.7441 92.9297L62.8086 92.9404C62.875 96.1859 63.3321 99.4116 64.1699 102.548C63.998 102.774 63.7549 102.977 63.6641 103.232C62.9541 105.234 62.2852 107.252 61.5713 109.254C61.4736 109.527 61.2021 109.74 61.0107 109.98L60.2812 107.475L61.1309 104.575Z" fill="#A9AA88"/>
<path fill-rule="evenodd" clip-rule="evenodd" d="M61.0117 109.981C61.2031 109.741 61.4756 109.528 61.5723 109.255C62.2861 107.253 62.9561 105.236 63.665 103.233C63.7559 102.978 63.998 102.775 64.1709 102.549L65.3965 105.238C65.1543 105.582 64.8203 105.892 64.6855 106.274L62.3379 113.168C62.2412 113.444 61.9111 113.64 61.6904 113.873L61.0117 109.981Z" fill="#B6B598"/>
<path fill-rule="evenodd" clip-rule="evenodd" d="M61.6904 113.872C61.9121 113.64 62.2412 113.443 62.3379 113.167L64.6855 106.273C64.8193 105.892 65.1543 105.581 65.3965 105.237L66.583 106.25C66.0098 106.816 65.6914 107.471 65.8828 108.298L65.5225 109.478C65.3584 109.68 65.1211 109.855 65.04 110.087C64.2207 112.434 63.4385 114.793 62.6133 117.14C62.5088 117.437 62.2187 117.671 62.0137 117.933C61.9069 116.579 61.7992 115.226 61.6904 113.872Z" fill="#C2C1A7"/>
<path fill-rule="evenodd" clip-rule="evenodd" d="M62.0146 117.933C62.2187 117.67 62.5088 117.437 62.6143 117.14C63.4394 114.794 64.2217 112.435 65.041 110.087C65.1221 109.856 65.3584 109.68 65.5234 109.478L65.0264 114.893C64.8935 115.046 64.7012 115.18 64.6377 115.358C64.0762 116.935 63.5469 118.522 62.9834 120.099C62.8672 120.424 62.6445 120.711 62.4707 121.015C62.3164 120.812 62.04 120.617 62.0273 120.406C61.9775 119.585 62.0117 118.758 62.0146 117.933Z" fill="#CECDB7"/>
<path fill-rule="evenodd" clip-rule="evenodd" d="M62.4697 121.015C62.6436 120.71 62.8662 120.423 62.9824 120.099C63.5469 118.523 64.0752 116.936 64.6367 115.358C64.7002 115.18 64.8936 115.047 65.0254 114.893L65.0371 118.447L63.8477 121.498L62.4697 121.015Z" fill="#DBDAC7"/>
<path fill-rule="evenodd" clip-rule="evenodd" d="M63.8477 121.499L65.0371 118.448L65.2822 122.058L63.8477 121.499Z" fill="#EBE9DC"/>
<path fill-rule="evenodd" clip-rule="evenodd" d="M65.883 108.299C65.6916 107.472 66.0089 106.816 66.5832 106.251L66.9123 106.476L65.883 108.299Z" fill="#CECDB7"/>
<path fill-rule="evenodd" clip-rule="evenodd" d="M62.8086 92.9414L62.7441 92.9307L62.6797 92.9404L62.8311 92.3945L62.8086 92.9414Z" fill="#4FAA41"/>
</svg>
