<svg width="102" height="100" viewBox="0 0 102 100" fill="none" xmlns="http://www.w3.org/2000/svg">
<path d="M28.593 40.5349C28.593 41.7553 28.7239 42.7447 28.9522 43.4702C29.242 44.2865 29.591 45.0801 29.9962 45.8446C30.1594 46.1084 30.2244 46.3721 30.2244 46.6032C30.2244 46.9328 30.0289 47.2627 29.6047 47.5926L27.549 48.9776C27.2553 49.1756 26.9615 49.2744 26.7001 49.2744C26.3741 49.2744 26.0476 49.1095 25.7212 48.8126C25.2812 48.3355 24.8878 47.8164 24.5467 47.2627C24.2202 46.7024 23.8938 46.0753 23.535 45.3171C20.9894 48.3508 17.7914 49.8679 13.9411 49.8681C11.2002 49.8681 9.01359 49.0764 7.41446 47.4938C5.81573 45.9103 5 43.7998 5 41.1616C5 38.3586 5.97895 36.083 7.96958 34.3681C9.95981 32.6532 12.6033 31.7957 15.9644 31.7957C17.0739 31.7957 18.216 31.8946 19.4233 32.0595C20.6309 32.2245 21.8708 32.4882 23.1762 32.7851V30.3777C23.1762 27.871 22.6538 26.1234 21.6422 25.101C20.5982 24.0786 18.8358 23.5837 16.3232 23.5837C15.181 23.5837 14.0065 23.716 12.7989 24.0129C11.5913 24.3097 10.4168 24.6723 9.27459 25.1341C8.75258 25.3648 8.36108 25.4967 8.13241 25.5628C7.90375 25.629 7.74091 25.6616 7.61041 25.6616C7.15346 25.6616 6.92518 25.3317 6.92518 24.6392V23.0231C6.92518 22.4956 6.99062 22.0999 7.15346 21.8692C7.31668 21.6381 7.61041 21.4074 8.06735 21.1767C9.2094 20.5828 10.5799 20.088 12.1787 19.6925C13.7782 19.2638 15.4751 19.0661 17.2698 19.0661C21.1533 19.0661 23.9923 19.9563 25.8198 21.7373C27.6144 23.518 28.5283 26.2223 28.5283 29.8501V40.5349H28.593ZM15.3442 45.5478C16.4214 45.5478 17.5308 45.3501 18.7053 44.9541C19.8802 44.5584 20.9246 43.8328 21.8054 42.8435C22.3278 42.2171 22.7193 41.5246 22.9148 40.7329C23.1108 39.9416 23.2413 38.9849 23.2413 37.8637V36.4787C22.2516 36.2354 21.2493 36.0483 20.239 35.9181C19.2216 35.7876 18.1972 35.7215 17.1716 35.7201C14.9851 35.7201 13.3863 36.1488 12.3096 37.0393C11.2329 37.9298 10.7105 39.183 10.7105 40.8317C10.7105 42.3817 11.102 43.536 11.9177 44.3277C12.7011 45.1521 13.8433 45.5478 15.3442 45.5478ZM41.548 49.1095C40.9606 49.1095 40.5691 49.0107 40.3081 48.7796C40.0471 48.5819 39.8184 48.1201 39.6228 47.4938L31.9545 22.0011C31.7581 21.3413 31.6604 20.9126 31.6604 20.6818C31.6604 20.1543 31.9213 19.8571 32.4437 19.8571H35.6416C36.2614 19.8571 36.686 19.9563 36.9143 20.187C37.1753 20.385 37.3712 20.8468 37.5668 21.4732L43.049 43.3053L48.1397 21.4732C48.3029 20.8137 48.4989 20.385 48.7595 20.187C49.0209 19.9893 49.4778 19.8575 50.0652 19.8575H52.6757C53.2954 19.8575 53.7201 19.9563 53.9807 20.187C54.2421 20.385 54.4703 20.8468 54.6008 21.4732L59.757 43.5691L65.402 21.4732C65.5976 20.8137 65.8263 20.385 66.0545 20.187C66.3155 19.9893 66.7398 19.8575 67.3272 19.8575H70.3618C70.8842 19.8575 71.178 20.1212 71.178 20.6818C71.178 20.8468 71.1452 21.0118 71.1125 21.2094C71.0798 21.407 71.0147 21.6712 70.8842 22.0342L63.0195 47.5264C62.824 48.1863 62.5955 48.615 62.3343 48.8126C62.0733 49.0107 61.6491 49.1425 61.0947 49.1425H58.2884C57.6682 49.1425 57.244 49.0437 56.9826 48.8126C56.7216 48.5819 56.4933 48.1532 56.3628 47.4938L51.3044 26.2223L46.2792 47.4603C46.1163 48.1201 45.9204 48.5489 45.6594 48.7796C45.3984 49.0107 44.9414 49.1095 44.3544 49.1095H41.548ZM83.4805 50C81.7836 50 80.0867 49.802 78.4552 49.4063C76.8234 49.0107 75.5511 48.5815 74.7026 48.0875C74.1803 47.7902 73.8211 47.4607 73.691 47.1639C73.5641 46.8727 73.4974 46.5584 73.495 46.2403V44.5584C73.495 43.8659 73.756 43.536 74.2457 43.536C74.4455 43.5367 74.6439 43.5702 74.8331 43.6352C75.0287 43.7013 75.3224 43.8328 75.6489 43.9647C76.8013 44.4774 78.0046 44.8643 79.2382 45.119C80.5165 45.3809 81.8174 45.5135 83.1217 45.5147C85.1774 45.5147 86.7765 45.1521 87.8859 44.4265C88.9954 43.701 89.5829 42.6459 89.5829 41.2935C89.5829 40.3703 89.2891 39.6117 88.7017 38.9849C88.1142 38.3582 87.0048 37.7979 85.406 37.27L80.6741 35.7862C78.292 35.0275 76.53 33.9063 75.4529 32.4221C74.3762 30.971 73.8215 29.3553 73.8215 27.6403C73.8215 26.2553 74.1152 25.035 74.7026 23.9794C75.2897 22.9243 76.0731 22.0011 77.052 21.2755C78.031 20.5169 79.1404 19.9563 80.4458 19.5606C81.7509 19.165 83.1213 19 84.5572 19C85.2752 19 86.0258 19.0331 86.7438 19.1319C87.4945 19.2307 88.1797 19.3626 88.8649 19.4945C89.5174 19.6594 90.1376 19.8244 90.725 20.0224C91.3122 20.22 91.769 20.4178 92.0955 20.6157C92.5524 20.8799 92.8785 21.1436 93.0744 21.4405C93.2702 21.7043 93.3681 22.067 93.3681 22.5287V24.0786C93.3681 24.7711 93.1072 25.1341 92.6175 25.1341C92.3565 25.1341 91.9323 25.0018 91.3779 24.738C89.5173 23.8806 87.4287 23.4519 85.1123 23.4519C83.2522 23.4519 81.7836 23.7487 80.7719 24.3755C79.7606 25.0018 79.2382 25.9585 79.2382 27.3104C79.2382 28.234 79.5647 29.0253 80.2172 29.6521C80.8697 30.2788 82.0773 30.9052 83.8069 31.4658L88.4407 32.95C90.7901 33.7087 92.487 34.7638 93.4987 36.1157C94.5103 37.4676 95 39.018 95 40.7329C95 42.151 94.7059 43.4372 94.1512 44.5584C93.5641 45.6796 92.7807 46.669 91.769 47.4607C90.7574 48.2851 89.5501 48.8788 88.147 49.3075C86.6783 49.7693 85.1447 50 83.4805 50Z" fill="#CECECE"/>
<path d="M92.2165 74.9127C81.0557 82.8085 64.8397 87 50.8971 87C31.3566 87 13.7502 80.0789 0.451974 68.5766C-0.59975 67.667 0.349923 66.4323 1.60495 67.1468C15.9889 75.1404 33.7314 79.9816 52.0845 79.9816C64.4667 79.9816 78.0703 77.5123 90.5885 72.4434C92.4542 71.6308 94.0486 73.6133 92.2165 74.9127ZM96.8644 69.8438C95.4397 68.0894 87.4333 68.999 83.8035 69.4214C82.7178 69.5517 82.5481 68.6417 83.5322 67.9594C89.9098 63.6702 100.393 64.9052 101.614 66.3346C102.835 67.7969 101.274 77.837 95.3036 82.646C94.388 83.3934 93.5059 83.0036 93.9129 82.0288C95.2696 78.8117 98.2891 71.566 96.8644 69.8438Z" fill="#FF9900"/>
</svg>
