<svg width="72" height="100" viewBox="0 0 72 100" fill="none" xmlns="http://www.w3.org/2000/svg">
<g clip-path="url(#clip0_364_1081)">
<path d="M71.7418 19.6028L65.3039 91.7247L36.3648 99.7474L7.50552 91.7357L1.07422 19.6028H71.7418Z" fill="#E44D26"/>
<path d="M36.408 93.6149L59.7922 87.1321L65.2936 25.5005H36.408V93.6149Z" fill="#F16529"/>
<path d="M23.8928 43.1945H36.408V34.3477H14.2244L14.436 36.7211L16.6105 61.1006H36.408V52.2538H24.7014L23.8928 43.1945ZM25.8867 65.5241H17.0058L18.2451 79.415L36.3673 84.4454L36.408 84.4344V75.2299L36.3692 75.2402L26.5166 72.5798L25.8867 65.5241Z" fill="#EBEBEB"/>
<path d="M7.64893 0H12.1448V4.44183H16.2575V0H20.7536V13.451H16.2578V8.94681H12.145V13.451H7.6492L7.64893 0ZM26.6655 4.46066H22.7082V0H35.1221V4.46066H31.1622V13.451H26.6664V4.46066H26.6655ZM37.0921 0H41.78L44.6636 4.72632L47.5445 0H52.2342V13.451H47.7567V6.78393L44.6636 11.5665H44.586L41.491 6.78393V13.451H37.0921V0ZM54.4716 0H58.9689V9.00499H65.2913V13.451H54.4714L54.4716 0Z" fill="#CECECE"/>
<path d="M36.3775 61.1006H47.2714L46.2442 72.5743L36.3772 75.2374V84.4413L54.5138 79.415L54.6467 77.9202L56.726 54.6294L56.9417 52.2538H36.3775V61.1006ZM36.3775 43.1729V43.1945H57.7467L57.924 41.2061L58.3273 36.7211L58.5387 34.3477H36.3775V43.1729Z" fill="white"/>
</g>
<defs>
<clipPath id="clip0_364_1081">
<rect width="70.92" height="100" fill="white" transform="translate(0.947998)"/>
</clipPath>
</defs>
</svg>
