<svg width="75" height="100" viewBox="0 0 75 100" fill="none" xmlns="http://www.w3.org/2000/svg">
<g clip-path="url(#clip0_364_1101)">
<path d="M24.4014 77.3044C24.4014 77.3044 20.587 79.5226 27.1162 80.2732C35.0263 81.1755 39.0688 81.0463 47.7858 79.3963C47.7858 79.3963 50.0777 80.8333 53.278 82.0781C33.7373 90.4529 9.05288 81.5928 24.4014 77.3044ZM22.0136 66.3755C22.0136 66.3755 17.7353 69.5425 24.2694 70.2183C32.7191 71.0899 39.3919 71.1613 50.9387 68.9379C50.9387 68.9379 52.5358 70.557 55.0471 71.4425C31.4208 78.3512 5.10548 71.9873 22.0136 66.3755Z" fill="#5382A1"/>
<path d="M42.1436 47.8367C46.9586 53.38 40.8786 58.3685 40.8786 58.3685C40.8786 58.3685 53.1043 52.0572 47.4896 44.1537C42.2456 36.7838 38.224 33.1214 59.9948 20.4954C59.9948 20.4954 25.8219 29.0303 42.1436 47.8367Z" fill="#E76F00"/>
<path d="M67.988 85.3878C67.988 85.3878 70.8109 87.7136 64.8791 89.513C53.5999 92.93 17.9334 93.9618 8.02533 89.6491C4.46376 88.1 11.143 85.9497 13.2438 85.4983C15.4349 85.0231 16.6872 85.1118 16.6872 85.1118C12.7262 82.3214 -8.91485 90.5907 5.69469 92.9587C45.5366 99.4199 78.3224 90.0494 67.988 85.3878ZM26.2354 55.052C26.2354 55.052 8.09353 59.3613 19.8112 60.9257C24.7586 61.5881 34.6213 61.4384 43.8083 60.6685C51.3164 60.0355 58.8554 58.6887 58.8554 58.6887C58.8554 58.6887 56.208 59.8225 54.2927 61.1303C35.8695 65.9757 0.279371 63.7217 10.5253 58.7653C19.1904 54.5769 26.2354 55.052 26.2354 55.052ZM58.7805 73.2433C77.5089 63.5116 68.8496 54.1595 62.8057 55.4196C61.3242 55.7277 60.6638 55.9948 60.6638 55.9948C60.6638 55.9948 61.2138 55.1335 62.2641 54.7607C74.2207 50.5569 83.4164 67.1587 58.4042 73.7338C58.4042 73.7341 58.6941 73.4751 58.7805 73.2433Z" fill="#5382A1"/>
<path d="M47.4896 0.107223C47.4896 0.107223 57.8615 10.4829 37.6523 26.437C21.4468 39.2353 33.9569 46.5324 37.6457 54.8697C28.1861 46.335 21.2439 38.8217 25.9014 31.8292C32.737 21.5642 51.6743 16.5879 47.4896 0.107223Z" fill="#E76F00"/>
<path d="M28.0758 99.6142C46.0524 100.765 73.6573 98.9758 74.3111 90.4697C74.3111 90.4697 73.0544 93.6946 59.4544 96.2553C44.1111 99.1426 25.1874 98.8056 13.9634 96.955C13.9637 96.955 16.2608 98.8567 28.0758 99.6142Z" fill="#5382A1"/>
</g>
<defs>
<clipPath id="clip0_364_1101">
<rect width="73.992" height="100" fill="white" transform="translate(0.540039)"/>
</clipPath>
</defs>
</svg>
