<svg width="101" height="100" viewBox="0 0 101 100" fill="none" xmlns="http://www.w3.org/2000/svg">
<g clip-path="url(#clip0_364_1109)">
<path d="M9.59865 11.7251C10.5695 13.4751 11.582 14.9751 12.6403 16.2668C13.6695 16.2126 17.357 18.1668 18.107 18.4459C20.2236 19.6209 22.5361 21.0709 24.6361 22.4709C26.7403 23.8751 28.6361 25.2293 29.9361 26.2209C30.5861 26.7209 31.0945 27.1293 31.4028 27.4126C31.5237 27.5138 31.6328 27.6284 31.7278 27.7543L31.7695 27.8418C31.7801 27.8738 31.7841 27.9077 31.7812 27.9414C31.7783 27.975 31.7687 28.0078 31.7528 28.0376C31.7357 28.0692 31.7119 28.0967 31.6831 28.1183C31.6544 28.1399 31.6213 28.155 31.5861 28.1626H31.4695C31.232 28.1626 30.6236 27.4834 29.3986 26.4334C25.7503 23.629 21.9089 21.0852 17.9028 18.8209C15.8028 17.6543 13.9236 16.5626 12.6403 16.2668C12.1438 16.1928 11.6381 16.158 11.1361 16.1626C10.0203 16.1834 8.91371 16.3702 7.85282 16.7168C9.91115 18.4418 11.6445 19.7001 13.1861 20.6709C10.8111 19.9126 8.26115 19.7959 5.26115 21.2251C7.45282 22.5959 9.29032 23.5876 10.9028 24.3293C15.4986 24.9793 20.3111 27.2293 24.3361 29.7834C26.3486 31.0626 28.1028 32.3459 29.4153 33.3959C30.0695 33.9168 30.6236 34.3834 31.0403 34.7626C31.4486 35.1418 31.7653 35.4043 31.8611 35.6376C31.9861 35.9418 31.782 36.0709 31.5111 35.8793C31.3778 35.7876 31.1445 35.4543 30.7445 35.0834C30.2277 34.6102 29.694 34.1557 29.1445 33.7209C27.5295 32.4426 25.848 31.2506 24.107 30.1501C20.3861 27.8084 14.807 25.9293 10.8861 24.3293C9.52147 24.0459 8.11334 24.0439 6.74785 24.3233C5.38236 24.6027 4.0882 25.1577 2.94448 25.9543C4.81532 26.7876 6.43198 27.4084 7.86948 27.8834C11.2528 27.8834 15.7528 29.4043 20.0986 31.7251C24.4403 34.0418 28.5986 36.7834 30.6111 39.1168C30.8861 39.4376 30.5445 39.6418 30.3028 39.4084C28.1361 37.3459 24.207 34.3918 19.8945 32.0918C17.232 30.6876 10.9236 27.8834 7.86948 27.8834L7.88615 27.8918C5.52365 27.9751 3.17782 28.7043 0.890316 30.8751C2.87782 31.3668 4.57782 31.6918 6.07365 31.9126C4.24032 32.2793 2.44865 33.1626 0.702816 34.9209C2.05004 35.207 3.27504 35.432 4.37782 35.5959C2.84939 36.3485 1.52887 37.4644 0.531982 38.8459C2.08615 38.9709 3.46115 39.0209 4.69865 39.0293C3.19865 39.7209 1.79865 40.8209 0.548649 42.5709C2.76948 42.6834 4.63198 42.6751 6.23198 42.5834C4.47365 43.3001 2.84865 44.5168 1.46115 46.6168C4.21948 46.6584 6.41115 46.5251 8.24448 46.3001L8.21948 46.3084C12.3445 46.0043 17.7903 46.8376 20.5611 49.8376C20.7778 50.0751 20.4611 50.3293 20.2611 50.1459C17.5611 47.7293 14.0403 46.7001 8.21948 46.3084H8.21115C5.94865 46.9293 3.85282 48.1668 2.12782 50.7834C4.36115 50.8168 6.21948 50.7293 7.81948 50.5751C5.86532 51.6459 4.18198 53.2584 3.07365 56.0168C5.08615 55.6334 6.77365 55.2251 8.22782 54.8001C6.71532 55.9043 5.44448 57.4501 4.59032 59.7751C5.93476 59.4751 7.14448 59.1682 8.21948 58.8543C7.14437 60.1773 6.4104 61.7439 6.08198 63.4168C7.54865 62.8751 8.81115 62.3584 9.94032 61.8459C8.86948 63.0959 8.05282 64.6834 7.64865 66.8043C9.71115 65.9751 11.3945 65.1876 12.807 64.4376C11.5153 65.8251 10.5445 67.6043 10.1611 70.0876C12.2316 69.191 14.2389 68.1553 16.1695 66.9876C14.3653 68.4959 12.9861 70.5001 12.507 73.6001C15.7903 72.1501 18.0861 70.8376 19.8695 69.6209C19.1028 71.1709 18.6945 72.9793 18.8903 75.2376C22.0653 72.8043 24.0695 70.8376 25.5653 69.1001C25.4653 70.2209 25.5528 71.4334 25.8861 72.7834C28.1611 68.8709 30.4236 67.7334 32.7611 66.4251C29.032 68.3043 29.5861 69.7168 29.5861 71.3584C32.432 68.3584 36.3986 65.1834 37.6153 63.1918C35.9903 65.6293 35.3361 67.9418 34.907 69.9834C26.6028 74.3751 21.5445 75.5209 15.8736 77.2751C18.0736 78.0834 20.4278 78.8709 19.4528 79.9918L16.8528 82.5834C18.5153 82.0668 20.207 81.3334 21.6778 82.3376C21.532 83.7001 19.8153 84.3876 18.3445 85.1834C20.932 84.2501 21.4945 84.4668 22.1778 84.6834C22.5153 86.3209 21.332 87.1959 20.5611 88.2751C27.082 83.3168 35.5861 79.4001 41.5778 77.7668C50.0028 74.9293 60.8695 71.9793 63.8236 64.7876L66.7903 52.9251L66.7736 52.9418C66.3111 52.8001 65.7486 52.6793 65.3153 52.3876C64.8733 52.0814 64.5325 51.6507 64.3361 51.1501C63.2861 51.4209 62.5028 51.2751 62.0028 50.7834C61.5153 50.2959 61.307 49.5501 61.157 48.7376C60.3111 48.9084 59.6486 48.8043 59.2111 48.4168C58.7278 47.9959 58.5028 47.3334 58.3861 46.5668L58.3528 46.4043L58.507 46.3418C58.9822 46.1711 59.4125 45.8947 59.7653 45.5334C59.8843 45.4112 59.9728 45.2625 60.0235 45.0996C60.0741 44.9367 60.0856 44.7641 60.057 44.5959L60.032 44.4418L60.157 44.3751C60.8361 43.9876 61.5945 43.6709 61.9403 43.2084C62.0355 43.0857 62.1043 42.9446 62.1423 42.794C62.1803 42.6435 62.1867 42.4866 62.1611 42.3334C62.0569 41.7964 61.8365 41.2887 61.5153 40.8459L61.4028 40.6793L61.5695 40.5668C62.0611 40.1918 62.5861 39.8209 62.8528 39.4834C62.9861 39.3168 63.0514 39.164 63.0486 39.0251C63.0486 38.8876 62.9861 38.7334 62.782 38.5376L62.3736 38.1459L62.9361 38.1709C63.8278 38.2126 64.575 38.139 65.1778 37.9501C65.642 37.8171 66.0455 37.5269 66.3195 37.1293C66.2903 36.9918 66.2361 36.8668 66.2361 36.7209C66.2597 36.2025 66.4823 35.7131 66.8575 35.3545C67.2327 34.996 67.7317 34.7959 68.2507 34.7959C68.7697 34.7959 69.2687 34.996 69.644 35.3545C70.0192 35.7131 70.2417 36.2025 70.2653 36.7209C70.2653 36.9043 70.2028 37.0709 70.157 37.2418C70.8945 37.3001 71.6028 37.2834 72.2695 36.9918L72.2778 36.9959L72.4236 36.9418C73.407 36.5876 73.8153 37.1293 75.4237 35.0418C68.382 25.9168 58.1028 32.3959 54.6861 41.8001C53.8111 44.2001 48.832 44.2084 47.3903 41.8001C41.682 29.5084 24.3486 16.5168 9.59865 11.7251ZM13.182 20.6626C16.957 21.8834 21.1528 23.9209 24.7236 26.1959C26.5153 27.3334 28.1111 28.4584 29.3653 29.4418C30.6195 30.4251 31.7236 31.4126 31.9486 31.8376C32.1736 32.2626 31.9486 32.4209 31.607 32.0876C31.2695 31.7626 30.3445 30.7543 29.107 29.7834C27.6239 28.6307 26.086 27.5503 24.4986 26.5459C21.2695 24.5043 16.2403 22.5543 13.182 20.6626ZM6.09865 31.9126C10.7486 31.9709 15.8903 33.7751 20.407 36.0668C22.4235 37.0812 24.3659 38.2368 26.2195 39.5251C27.7695 40.6209 29.0195 41.7084 29.2778 42.2626C29.532 42.8209 29.1945 42.8043 28.9153 42.4918C28.0337 41.5199 27.0503 40.6454 25.982 39.8834C24.1413 38.6026 22.2129 37.4525 20.2111 36.4418C16.1986 34.4334 10.6945 32.5793 6.09865 31.9126ZM68.2486 35.1293C68.0402 35.1293 67.8337 35.1703 67.6411 35.2501C67.4485 35.3299 67.2735 35.4468 67.1261 35.5942C66.9787 35.7416 66.8618 35.9167 66.782 36.1093C66.7022 36.3019 66.6611 36.5083 66.6611 36.7168C66.6611 36.9252 66.7022 37.1317 66.782 37.3243C66.8618 37.5169 66.9787 37.6919 67.1261 37.8393C67.2735 37.9867 67.4485 38.1036 67.6411 38.1834C67.8337 38.2632 68.0402 38.3043 68.2486 38.3043C68.6697 38.3043 69.0735 38.137 69.3712 37.8393C69.6689 37.5416 69.8361 37.1378 69.8361 36.7168C69.8361 36.2957 69.6689 35.8919 69.3712 35.5942C69.0735 35.2965 68.6697 35.1293 68.2486 35.1293ZM7.61532 35.3251C11.0403 35.6251 14.782 36.8584 18.1736 38.4501C22.6986 40.5709 26.6528 43.2751 28.3153 45.3959C28.4611 45.5834 28.257 45.9418 27.982 45.6543C26.1986 43.8209 22.4736 40.9418 17.9945 38.8418C14.1903 37.0876 8.48615 35.2168 4.40282 35.5918C5.44865 35.4668 6.47365 35.2251 7.61532 35.3251ZM75.6945 35.3668C74.1695 37.3459 73.4861 37.1293 72.7653 37.3001C73.157 39.0918 74.2236 39.7418 75.2028 40.5084L74.9528 40.5584C84.5986 38.6959 92.3945 39.3668 100.532 39.5751L75.6945 35.3668ZM74.9528 40.5584H74.9445L74.9278 40.6251L74.9528 40.5584ZM72.3486 37.4043C71.5975 37.6721 70.7932 37.7564 70.0028 37.6501C69.8367 37.9723 69.5861 38.2433 69.2779 38.4342C68.9696 38.625 68.6153 38.7284 68.2528 38.7334C67.8717 38.7331 67.4987 38.6239 67.1776 38.4187C66.8565 38.2135 66.6007 37.9208 66.4403 37.5751C66.1411 37.9385 65.7454 38.21 65.2986 38.3584C64.63 38.5411 63.937 38.6185 63.2445 38.5876C63.3278 38.7334 63.4695 38.8709 63.4736 39.0209C63.4673 39.2891 63.3654 39.5463 63.1861 39.7459C62.882 40.1293 62.3986 40.4543 61.957 40.7793C62.3181 41.3626 62.525 41.8654 62.5778 42.2876C62.6335 42.7047 62.5293 43.1275 62.2861 43.4709C61.8445 44.0543 61.0861 44.3459 60.457 44.6918C60.4847 45.099 60.3499 45.5005 60.082 45.8084C59.7287 46.1633 59.3079 46.4438 58.8445 46.6334C58.957 47.2834 59.1528 47.8126 59.4861 48.1084C59.8445 48.4251 60.3653 48.5376 61.257 48.3043L61.4861 48.2459L61.5278 48.4751C61.6653 49.3376 61.8945 50.0793 62.307 50.4876C62.7236 50.9001 63.3237 51.0501 64.4028 50.7168L64.607 50.6543L64.6736 50.8543C64.819 51.335 65.1268 51.7504 65.5445 52.0293C65.907 52.2793 66.5736 52.4959 67.0361 52.6418C70.3611 49.0209 73.3903 45.2584 74.8861 40.7251C73.9486 39.9876 72.7778 39.3168 72.3486 37.4043ZM4.72365 39.0126C9.57782 38.6793 14.2361 39.8293 18.0653 41.6209C21.8986 43.4126 24.9736 45.5334 26.2903 47.0668C26.6028 47.4293 26.2111 47.5668 25.9903 47.3668C23.5565 45.1972 20.8246 43.3872 17.8778 41.9918C14.1111 40.2668 8.74032 39.3084 4.72365 39.0126ZM8.32365 42.3543C10.8653 42.4376 13.4903 43.0001 15.8486 43.8209C18.9986 44.9126 21.7695 46.3793 23.1278 47.9043C23.3153 48.1126 23.0986 48.4334 22.8195 48.1918C21.3653 46.9251 18.8153 45.3043 15.7111 44.2293C13.3195 43.4168 8.99032 42.6918 6.26115 42.5751C7.08198 42.4834 7.47782 42.3251 8.32365 42.3543ZM12.6986 49.8043C14.4611 49.9459 16.3903 50.3584 18.2861 51.5001C18.4653 51.6084 18.4903 52.0668 18.082 51.8751C14.5153 50.2001 12.557 49.8334 7.84448 50.5834C9.45282 50.0501 10.9278 49.6626 12.6945 49.8043H12.6986ZM12.532 53.0876C14.1986 52.9418 15.7986 53.0793 17.9361 53.9376C18.1195 54.0126 18.2695 54.4626 17.7986 54.3293C14.2278 53.3168 12.9361 52.9626 8.26948 54.7626C9.48647 53.783 10.9737 53.1986 12.532 53.0876ZM17.8861 55.9501C19.207 55.8543 20.532 55.8418 21.7778 55.9751C21.9945 56.0001 22.007 56.4126 21.7528 56.4001C19.1915 56.2648 16.6231 56.4256 14.0986 56.8793C13.0861 57.0709 12.3361 57.0584 8.24448 58.7876C9.44032 57.8168 11.5528 56.9043 14.0153 56.4543C15.2974 56.2204 16.5908 56.0535 17.8903 55.9543L17.8861 55.9501ZM23.2195 57.9918C23.632 58.0043 23.4778 58.4251 23.2445 58.4209C20.2111 58.3793 17.8111 58.9709 15.432 59.6501C13.5519 60.2483 11.7168 60.9793 9.94032 61.8376C11.1195 60.8793 12.9111 59.9334 15.3195 59.2459C17.732 58.5543 20.5195 57.8876 23.2195 57.9876V57.9918ZM25.4195 59.6501C25.5695 59.6293 25.857 60.0001 25.4945 60.0668C22.4528 60.6376 20.3111 61.1793 18.0195 61.9584C17.1195 62.2668 15.6028 62.8209 12.8403 64.4043C13.9236 63.2834 15.5736 62.3543 17.8945 61.5709C20.3417 60.7124 22.8597 60.071 25.4195 59.6543V59.6501ZM26.7153 61.7626C27.0278 61.7126 27.1195 62.1251 26.7986 62.1876C21.7278 63.1918 19.4653 64.5043 16.2153 66.9543C18.3153 64.7751 21.6195 62.5751 26.7153 61.7626ZM29.1945 63.6293C29.557 63.5751 29.6528 63.9918 29.282 64.0459C25.6486 64.5876 23.1278 66.3501 19.8861 69.5876C21.1153 67.5334 24.0695 64.4209 29.1945 63.6293ZM30.7445 65.2543C30.9361 65.2293 31.2195 65.5584 30.8403 65.6709C29.8568 65.9538 28.9183 66.3747 28.0528 66.9209C27.2945 67.4126 26.8028 67.7543 25.5653 69.0334C26.0278 68.0126 26.7986 67.2251 27.8236 66.5751C28.8528 65.9209 29.9486 65.3543 30.7445 65.2543Z" fill="#008080"/>
</g>
<defs>
<clipPath id="clip0_364_1109">
<rect width="100" height="100" fill="white" transform="translate(0.531982)"/>
</clipPath>
</defs>
</svg>
