<svg width="68" height="100" viewBox="0 0 68 100" fill="none" xmlns="http://www.w3.org/2000/svg">
<g clip-path="url(#clip0_364_1089)">
<path d="M17.5373 100C26.7373 100 34.2039 92.5334 34.2039 83.3334V66.6667H17.5373C8.33727 66.6667 0.870605 74.1334 0.870605 83.3334C0.870605 92.5334 8.33727 100 17.5373 100Z" fill="#0ACF83"/>
<path d="M0.870605 49.9999C0.870605 40.7999 8.33727 33.3333 17.5373 33.3333H34.2039V66.6666H17.5373C8.33727 66.6666 0.870605 59.1999 0.870605 49.9999Z" fill="#A259FF"/>
<path d="M0.870605 16.6667C0.870605 7.46667 8.33727 0 17.5373 0H34.2039V33.3333H17.5373C8.33727 33.3333 0.870605 25.8667 0.870605 16.6667Z" fill="#F24E1E"/>
<path d="M34.2039 0H50.8705C60.0705 0 67.5372 7.46667 67.5372 16.6667C67.5372 25.8667 60.0705 33.3333 50.8705 33.3333H34.2039V0Z" fill="#FF7262"/>
<path d="M67.5372 49.9999C67.5372 59.1999 60.0705 66.6666 50.8705 66.6666C41.6705 66.6666 34.2039 59.1999 34.2039 49.9999C34.2039 40.7999 41.6705 33.3333 50.8705 33.3333C60.0705 33.3333 67.5372 40.7999 67.5372 49.9999Z" fill="#1ABCFE"/>
</g>
<defs>
<clipPath id="clip0_364_1089">
<rect width="66.672" height="100" fill="white" transform="translate(0.86792)"/>
</clipPath>
</defs>
</svg>
