<svg width="101" height="100" viewBox="0 0 101 100" fill="none" xmlns="http://www.w3.org/2000/svg">
<g clip-path="url(#clip0_364_1087)">
<path d="M50.8711 20.0015C37.5375 20.0015 29.207 26.6655 25.8711 39.9991C30.8695 33.3343 36.7047 30.8351 43.3695 32.5015C47.175 33.4499 49.8945 36.2093 52.9063 39.2671C57.8078 44.2413 63.4813 49.9999 75.8711 49.9999C89.2039 49.9999 97.5352 43.3351 100.871 29.9983C95.8711 36.6666 90.038 39.1671 83.3719 37.4999C79.5672 36.5507 76.8508 33.7921 73.8352 30.7343C68.9367 25.7601 63.2648 20.0015 50.8711 20.0015ZM25.8711 49.9999C12.5383 49.9999 4.20703 56.6647 0.871094 70.0015C5.87057 63.3332 11.7034 60.8327 18.3695 62.4999C22.175 63.4491 24.8945 66.2077 27.9062 69.2655C32.8078 74.2397 38.4812 79.9983 50.8711 79.9983C64.2039 79.9983 72.5352 73.3343 75.8711 60.0007C70.8711 66.6658 65.038 69.165 58.3719 67.4983C54.5672 66.5499 51.8508 63.7905 48.8352 60.7327C43.9367 55.7585 38.2648 49.9999 25.8711 49.9999Z" fill="#38BDF8"/>
</g>
<defs>
<clipPath id="clip0_364_1087">
<rect width="100" height="100" fill="white" transform="translate(0.86792)"/>
</clipPath>
</defs>
</svg>
