<svg width="101" height="100" viewBox="0 0 101 100" fill="none" xmlns="http://www.w3.org/2000/svg">
<g clip-path="url(#clip0_471_1410)">
<path d="M50.0347 0C22.4097 0 0.034668 22.375 0.034668 50C0.034668 72.125 14.3472 90.8125 34.2222 97.4375C36.7222 97.875 37.6597 96.375 37.6597 95.0625C37.6597 93.875 37.5972 89.9375 37.5972 85.75C25.0347 88.0625 21.7847 82.6875 20.7847 79.875C20.2222 78.4375 17.7847 74 15.6597 72.8125C13.9097 71.875 11.4097 69.5625 15.5972 69.5C19.5347 69.4375 22.3472 73.125 23.2847 74.625C27.7847 82.1875 34.9722 80.0625 37.8472 78.75C38.2847 75.5 39.5972 73.3125 41.0347 72.0625C29.9097 70.8125 18.2847 66.5 18.2847 47.375C18.2847 41.9375 20.2222 37.4375 23.4097 33.9375C22.9097 32.6875 21.1597 27.5625 23.9097 20.6875C23.9097 20.6875 28.0972 19.375 37.6597 25.8125C41.6597 24.6875 45.9097 24.125 50.1597 24.125C54.4097 24.125 58.6597 24.6875 62.6597 25.8125C72.2222 19.3125 76.4097 20.6875 76.4097 20.6875C79.1597 27.5625 77.4097 32.6875 76.9097 33.9375C80.0972 37.4375 82.0347 41.875 82.0347 47.375C82.0347 66.5625 70.3472 70.8125 59.2222 72.0625C61.0347 73.625 62.5972 76.625 62.5972 81.3125C62.5972 88 62.5347 93.375 62.5347 95.0625C62.5347 96.375 63.4722 97.9375 65.9722 97.4375C75.8996 94.0891 84.5264 87.7104 90.6372 79.2002C96.748 70.6899 100.035 60.4769 100.035 50C100.035 22.375 77.6597 0 50.0347 0Z" fill="#4F17F7"/>
</g>
<defs>
<clipPath id="clip0_471_1410">
<rect width="100" height="100" fill="white" transform="translate(0.034668)"/>
</clipPath>
</defs>
</svg>
