<svg width="24" height="24" viewBox="0 0 24 24" fill="none" xmlns="http://www.w3.org/2000/svg">
<g clip-path="url(#clip0_450_1392)">
<path fill-rule="evenodd" clip-rule="evenodd" d="M11.9168 2.62495C12.2179 2.45113 12.5564 2.35232 12.9037 2.33686C13.251 2.3214 13.597 2.38974 13.9123 2.53612L14.0835 2.62495L17.691 4.70712C17.9944 4.88236 18.2507 5.12855 18.4381 5.42459C18.6254 5.72063 18.7382 6.05769 18.7667 6.40687L18.7743 6.58345V10.75L22.3818 12.8321C22.6852 13.0074 22.9416 13.2535 23.1289 13.5496C23.3163 13.8456 23.429 14.1827 23.4576 14.5319L23.4652 14.7085V18.875C23.4652 19.2251 23.3803 19.57 23.2179 19.8802C23.0554 20.1904 22.8202 20.4565 22.5324 20.656L22.3818 20.7513L18.7743 22.8335C18.4731 23.0074 18.1344 23.1064 17.7869 23.1218C17.4394 23.1373 17.0932 23.0688 16.7777 22.9223L16.6077 22.8335L13.0002 20.7513L9.39266 22.8335C9.09143 23.0074 8.75274 23.1064 8.40522 23.1218C8.0577 23.1373 7.71156 23.0688 7.39607 22.9223L7.22599 22.8335L3.61849 20.7513C3.31526 20.5762 3.05899 20.3301 2.87164 20.0343C2.68429 19.7385 2.57143 19.4016 2.54274 19.0526L2.53516 18.875V14.7085C2.53515 14.3583 2.62001 14.0134 2.78245 13.7032C2.9449 13.393 3.1801 13.1269 3.46791 12.9275L3.61849 12.8321L7.22599 10.75V6.58345C7.22599 6.23331 7.31084 5.88839 7.47329 5.57822C7.63573 5.26804 7.87093 5.00186 8.15874 4.80245L8.30932 4.70712L11.9168 2.62495ZM17.691 12.6263L14.2287 14.625L17.691 16.6238L21.1533 14.625L17.691 12.6263ZM8.30932 12.6263L4.84699 14.625L8.30932 16.6238L11.7717 14.625L8.30932 12.6263ZM13.0002 4.50129L9.53782 6.50004L13.0002 8.49879L16.4625 6.50004L13.0002 4.50129Z" fill="#CECECE"/>
</g>
<defs>
<clipPath id="clip0_450_1392">
<rect width="24" height="24" fill="white"/>
</clipPath>
</defs>
</svg>
