<svg width="26" height="26" viewBox="0 0 26 26" fill="none" xmlns="http://www.w3.org/2000/svg">
<path fill-rule="evenodd" clip-rule="evenodd" d="M15.1666 2.16668C15.1667 1.92853 15.0883 1.69697 14.9436 1.50783C14.7989 1.31869 14.5959 1.18251 14.366 1.12035C14.1361 1.05819 13.8921 1.07351 13.6718 1.16396C13.4515 1.2544 13.2672 1.41492 13.1472 1.62068L5.56391 14.6207C5.46784 14.7853 5.41691 14.9724 5.41627 15.163C5.41562 15.3536 5.46528 15.541 5.56023 15.7063C5.65518 15.8716 5.79206 16.0089 5.95705 16.1044C6.12204 16.1998 6.3093 16.2501 6.49991 16.25H10.8332V23.8333C10.8331 24.0715 10.9115 24.3031 11.0562 24.4922C11.2009 24.6813 11.4039 24.8175 11.6338 24.8797C11.8637 24.9418 12.1077 24.9265 12.328 24.8361C12.5483 24.7456 12.7327 24.5851 12.8526 24.3793L20.4359 11.3793C20.532 11.2147 20.5829 11.0276 20.5836 10.837C20.5842 10.6464 20.5345 10.459 20.4396 10.2937C20.3446 10.1284 20.2078 9.99112 20.0428 9.89566C19.8778 9.8002 19.6905 9.74996 19.4999 9.75001H15.1666V2.16668Z" fill="#CECECE"/>
</svg>
