<svg width="26" height="26" viewBox="0 0 26 26" fill="none" xmlns="http://www.w3.org/2000/svg">
<path d="M8.26884 26C2.94185 22.9977 1.53937 20.156 2.34121 16.2749C2.93317 13.409 4.87149 11.0773 5.05734 8.21697C5.88534 9.72376 6.23131 10.8103 6.32383 12.3849C8.95726 9.15839 10.6975 4.69183 10.8005 0C10.8005 0 17.6597 4.03022 18.1097 10.1179C18.7002 8.86312 18.9975 6.87024 18.407 5.57865C20.1784 6.87031 30.5467 18.3368 17.0026 26C19.549 21.0418 17.6595 14.3518 13.2382 11.2619C13.5335 12.5905 13.0158 17.5457 11.0598 19.7231C11.6018 16.0849 10.5442 14.5465 10.5442 14.5465C10.5442 14.5465 10.1812 16.5844 8.77274 18.643C7.48661 20.5228 6.59546 22.518 8.26884 26Z" fill="#E62626" fill-opacity="0.8"/>
</svg>
