<svg width="58" height="49" viewBox="0 0 58 49" fill="none" xmlns="http://www.w3.org/2000/svg">
<g clip-path="url(#clip0_364_1077)">
<path d="M38.8522 16.2702C36.3229 13.7485 32.8055 12.1868 28.909 12.1868C21.2217 12.1868 14.9885 18.2815 14.9885 25.7979C14.9885 33.3144 21.2217 39.4091 28.909 39.4091C36.5963 39.4091 42.8294 33.3144 42.8294 25.7979L42.8294 6.3535C42.8294 5.27798 41.9408 4.40906 40.8408 4.40906C39.7408 4.40906 38.8522 5.27798 38.8522 6.3535L38.8522 16.2702ZM22.9431 25.7979C22.9431 24.2509 23.5716 22.7671 24.6904 21.6732C25.8093 20.5792 27.3267 19.9646 28.909 19.9646C30.4912 19.9646 32.0087 20.5792 33.1275 21.6732C34.2463 22.7671 34.8749 24.2508 34.8749 25.7979C34.8749 27.345 34.2463 28.8288 33.1275 29.9227C32.0087 31.0167 30.4912 31.6313 28.909 31.6313C27.3267 31.6313 25.8093 31.0167 24.6904 29.9227C23.5716 28.8288 22.9431 27.345 22.9431 25.7979ZM28.909 21.9091C27.8541 21.9091 26.8425 22.3188 26.0966 23.0481C25.3507 23.7774 24.9317 24.7665 24.9317 25.7979C24.9317 26.8293 25.3507 27.8185 26.0966 28.5478C26.8425 29.2771 27.8541 29.6868 28.909 29.6868C29.9638 29.6868 30.9755 29.2771 31.7213 28.5478C32.4672 27.8185 32.8863 26.8293 32.8863 25.7979C32.8863 24.7665 32.4672 23.7774 31.7213 23.0481C30.9755 22.3188 29.9638 21.9091 28.909 21.9091Z" fill="#FCB910"/>
</g>
<defs>
<clipPath id="clip0_364_1077">
<rect width="35" height="31.8182" fill="white" transform="translate(13 39.4091) rotate(-90)"/>
</clipPath>
</defs>
</svg>
