<svg width="58" height="49" viewBox="0 0 58 49" fill="none" xmlns="http://www.w3.org/2000/svg">
<g clip-path="url(#clip0_364_1058)">
<g clip-path="url(#clip1_364_1058)">
<path d="M25.0744 26.5019L33.6682 18.8272L35.861 21.2826L27.2672 28.9573L25.0744 26.5019ZM21.3914 29.7911L23.8468 27.5983L26.0395 30.0537L23.5842 32.2464L21.3914 29.7911ZM17.0059 24.8804L19.4612 22.6876L20.5576 23.9153L18.1023 26.1081L17.0059 24.8804ZM23.9781 25.2743L22.8817 24.0466L19.1986 27.3357L20.295 28.5634L22.7504 26.3706L23.9781 25.2743ZM20.6889 21.5912L21.9166 20.4948L23.013 21.7225L21.7853 22.8189L20.6889 21.5912ZM24.1094 22.9502L25.337 21.8538L26.4334 23.0815L25.2057 24.1779L24.1094 22.9502ZM23.1443 19.3985L24.3719 18.3021L25.4683 19.5297L24.2406 20.6261L23.1443 19.3985ZM26.5647 20.7574L27.7924 19.661L28.8888 20.8887L27.6611 21.9851L26.5647 20.7574ZM25.5996 17.2057L26.8273 16.1093L27.9237 17.337L26.696 18.4334L25.5996 17.2057ZM29.0201 18.5647L30.2477 17.4683L31.3441 18.6959L30.1164 19.7923L29.0201 18.5647ZM28.055 15.0129L29.2826 13.9165L30.379 15.1442L29.1514 16.2406L28.055 15.0129ZM31.4754 16.3719L32.7031 15.2755L33.7995 16.5032L32.5718 17.5996L31.4754 16.3719ZM30.5103 12.8201L31.738 11.7238L32.8344 12.9514L31.6067 14.0478L30.5103 12.8201ZM35.0271 15.4068L37.4825 13.214L34.1933 9.53099L32.9657 10.6274L35.1584 13.0827L33.9308 14.1791L35.0271 15.4068ZM37.3512 15.5381L36.1235 16.6345L37.2199 17.8621L35.9922 18.9585L37.0886 20.1862L40.7717 16.897L39.6753 15.6694L38.4476 16.7658L37.3512 15.5381ZM32.1319 4.75157L12.489 22.2937C11.1386 23.4998 11.0204 25.5914 12.2265 26.9419L20.9975 36.7633C22.2036 38.1137 24.2952 38.2319 25.6457 37.0259L45.2885 19.4837C46.6389 18.2777 46.7571 16.186 45.5511 14.8356L36.78 5.01415C35.574 3.66371 33.4823 3.54555 32.1319 4.75157ZM43.0957 17.0283L23.4529 34.5705L14.6818 24.7491L34.3246 7.20692L43.0957 17.0283Z" fill="#4F17F7"/>
</g>
</g>
<defs>
<clipPath id="clip0_364_1058">
<rect width="58" height="49" fill="white"/>
</clipPath>
<clipPath id="clip1_364_1058">
<rect width="39.5035" height="39.5035" fill="white" transform="translate(1 19.3132) rotate(-41.7667)"/>
</clipPath>
</defs>
</svg>
