<svg width="391" height="298" viewBox="0 0 391 298" fill="none" xmlns="http://www.w3.org/2000/svg">
<path d="M296.812 134.969H267.543V127.518C272.784 125.956 277.288 122.559 280.231 117.949C283.174 113.339 284.359 107.823 283.57 102.411C282.78 96.9993 280.069 92.0523 275.932 88.4749C271.795 84.8975 266.508 82.9288 261.039 82.9288C255.57 82.9288 250.283 84.8975 246.146 88.4749C242.009 92.0523 239.298 96.9993 238.509 102.411C237.719 107.823 238.904 113.339 241.847 117.949C244.79 122.559 249.294 125.956 254.535 127.518V134.969H137.465V127.518C142.699 125.95 147.195 122.552 150.132 117.944C153.069 113.337 154.251 107.826 153.462 102.419C152.673 97.0125 149.966 92.0695 145.836 88.4929C141.705 84.9163 136.425 82.9445 130.961 82.9375C125.491 82.9339 120.202 84.9005 116.063 88.4774C111.924 92.0542 109.212 97.0021 108.422 102.415C107.633 107.828 108.819 113.345 111.765 117.954C114.71 122.564 119.217 125.959 124.461 127.518V134.969H95.1912C94.7638 134.968 94.3405 135.052 93.9455 135.216C93.5506 135.379 93.1917 135.619 92.8895 135.921C92.5872 136.223 92.3476 136.582 92.1842 136.977C92.0209 137.372 91.937 137.795 91.9375 138.222V203.262C91.9375 205.062 93.3909 206.515 95.1912 206.515H124.461V229.281H112.535V242.288H124.457V279.584C124.457 282.495 117.953 291.063 117.953 291.063H143.969C143.969 291.063 137.465 282.495 137.465 279.577V242.285H254.535V279.581C254.535 282.495 248.031 291.063 248.031 291.063H274.047C274.047 291.063 267.543 282.495 267.543 279.577V242.285H279.465V229.277H267.543V206.512H296.812C297.24 206.512 297.663 206.428 298.058 206.265C298.453 206.102 298.812 205.862 299.114 205.56C299.416 205.258 299.656 204.899 299.819 204.504C299.983 204.109 300.066 203.685 300.066 203.258V138.219C300.063 137.357 299.719 136.532 299.11 135.923C298.5 135.314 297.674 134.971 296.812 134.969ZM224.995 141.473H259.36L235.169 200.008H200.811L224.995 141.473ZM114.703 105.703C114.703 96.7293 121.984 89.4414 130.964 89.4414C139.945 89.4414 147.226 96.7293 147.226 105.703C147.226 110.016 145.513 114.152 142.463 117.202C139.413 120.251 135.277 121.964 130.964 121.964C126.652 121.964 122.515 120.251 119.466 117.202C116.416 114.152 114.703 110.016 114.703 105.703ZM99.378 199.03C98.7782 198.426 98.4416 197.609 98.4414 196.758V144.726C98.4414 142.926 99.8948 141.473 101.695 141.473H124.516L99.378 199.03ZM130.961 238.168C130.328 238.168 129.721 237.916 129.273 237.469C128.826 237.021 128.574 236.414 128.574 235.781C128.574 235.148 128.826 234.541 129.273 234.094C129.721 233.646 130.328 233.395 130.961 233.395C131.594 233.395 132.201 233.646 132.648 234.094C133.096 234.541 133.347 235.148 133.347 235.781C133.347 236.414 133.096 237.021 132.648 237.469C132.201 237.916 131.594 238.168 130.961 238.168ZM131.145 200.008L156.716 141.473H191.196L167.005 200.008H131.145ZM254.535 229.277H137.465V206.512H254.535V229.277ZM261.039 238.168C260.406 238.168 259.799 237.916 259.352 237.469C258.904 237.021 258.653 236.414 258.653 235.781C258.653 235.148 258.904 234.541 259.352 234.094C259.799 233.646 260.406 233.395 261.039 233.395C261.672 233.395 262.279 233.646 262.727 234.094C263.174 234.541 263.426 235.148 263.426 235.781C263.426 236.414 263.174 237.021 262.727 237.469C262.279 237.916 261.672 238.168 261.039 238.168ZM261.039 121.961C256.726 121.961 252.59 120.248 249.54 117.198C246.491 114.148 244.778 110.012 244.778 105.699C244.778 101.387 246.491 97.2505 249.54 94.2008C252.59 91.1512 256.726 89.438 261.039 89.438C265.352 89.438 269.488 91.1512 272.538 94.2008C275.587 97.2505 277.301 101.387 277.301 105.699C277.301 110.012 275.587 114.148 272.538 117.198C269.488 120.248 265.352 121.961 261.039 121.961ZM293.559 196.758C293.559 197.185 293.475 197.608 293.312 198.003C293.149 198.398 292.909 198.757 292.607 199.059C292.304 199.362 291.946 199.601 291.551 199.765C291.156 199.928 290.732 200.012 290.305 200.011H268.976L292.709 142.579C293.247 143.166 293.55 143.93 293.559 144.726V196.758Z" fill="url(#paint0_linear_512_2467)"/>
<path d="M384.312 287.312V294H290.688V287.312H304.794L309.81 267.25H351.711L350.039 260.562H311.481L314.825 247.188H346.695L345.023 240.5H316.497L328.2 193.688H346.8L370.206 287.312H384.312Z" fill="url(#paint1_linear_512_2467)"/>
<path d="M60.2031 94.2813C61.4381 94.2233 62.4831 93.74 63.3381 92.8313C64.1931 91.9226 64.6301 90.84 64.6301 89.5833C64.6301 90.84 65.0481 91.9226 65.9031 92.8313C66.7581 93.74 67.8031 94.2233 69.0381 94.2813C67.8031 94.3393 66.7581 94.8226 65.9031 95.7313C65.4898 96.1597 65.1643 96.6675 64.9458 97.2251C64.7272 97.7827 64.6199 98.3791 64.6301 98.9793C64.6301 97.7226 64.2121 96.64 63.3381 95.7313C62.4831 94.8226 61.4381 94.3393 60.2031 94.2813ZM64.6301 80.3613C67.0241 80.2453 69.0571 79.298 70.7291 77.5193C72.4011 75.7406 73.2371 73.6333 73.2371 71.178C73.2371 73.6333 74.0731 75.7406 75.7451 77.5193C77.4171 79.298 79.4501 80.226 81.8631 80.3613C80.2861 80.4386 78.8421 80.8833 77.5121 81.734C76.2011 82.5653 75.1561 83.6866 74.3771 85.0786C73.6171 86.4706 73.2371 87.9593 73.2371 89.5833C73.2371 87.128 72.4011 85.0013 70.7291 83.2226C69.0571 81.4246 67.0241 80.4773 64.6301 80.3613ZM70.9381 101.183C72.7431 101.106 74.2821 100.391 75.5361 99.0566C76.7901 97.7226 77.4171 96.1373 77.4171 94.2813C77.4171 96.1373 78.0441 97.7226 79.2981 99.0566C80.5521 100.391 82.0721 101.106 83.8771 101.183C82.0721 101.261 80.5521 101.976 79.2981 103.31C78.0441 104.644 77.4171 106.229 77.4171 108.085C77.4171 106.229 76.7901 104.644 75.5361 103.31C74.338 102.013 72.686 101.249 70.9381 101.183ZM83.8771 92.0193C85.6821 91.942 87.2021 91.2266 88.4561 89.8926C89.7101 88.5586 90.3181 86.9733 90.3181 85.098C90.3181 86.954 90.9451 88.5393 92.1991 89.8733C93.4531 91.2073 94.9921 91.9226 96.7971 92C94.9921 92.0773 93.4531 92.7926 92.1991 94.1266C90.9451 95.4606 90.3181 97.046 90.3181 98.902C90.3181 97.046 89.6911 95.4606 88.4561 94.1266C87.2021 92.812 85.6821 92.0966 83.8771 92.0193Z" fill="#FAC53E"/>
<g clip-path="url(#clip0_512_2467)">
<path d="M141.432 70.284C141.413 69.3343 141.725 68.5091 142.367 67.8087C143.008 67.1082 143.802 66.7196 144.749 66.6574C143.802 66.7196 142.965 66.4526 142.237 65.8421C141.51 65.2315 141.093 64.4542 140.987 63.5102C141.006 64.4599 140.694 65.285 140.052 65.9855C139.75 66.3236 139.384 66.5983 138.975 66.7934C138.566 66.9886 138.122 67.1003 137.669 67.1222C138.616 67.06 139.453 67.3269 140.181 67.9521C140.909 68.5627 141.326 69.34 141.432 70.284ZM151.698 66.2013C151.664 64.36 152.276 62.7545 153.532 61.3846C154.788 60.0147 156.334 59.2695 158.184 59.148C156.334 59.2695 154.704 58.7327 153.279 57.5388C151.855 56.3448 151.054 54.832 150.83 52.9886C150.851 54.2016 150.589 55.3307 150.015 56.3925C149.454 57.4387 148.662 58.2954 147.652 58.9615C146.642 59.6131 145.539 59.9781 144.316 60.0584C146.166 59.9369 147.81 60.4727 149.235 61.6667C150.673 62.8597 151.49 64.3715 151.698 66.2013ZM141.945 52.0211C141.912 50.6334 142.375 49.4326 143.317 48.4052C144.259 47.3778 145.423 46.8332 146.836 46.7405C145.437 46.8323 144.211 46.4299 143.143 45.5345C142.075 44.639 141.458 43.4944 141.309 42.1144C141.342 43.5021 140.88 44.7174 139.938 45.7449C138.996 46.7723 137.833 47.3314 136.434 47.4232C137.833 47.3314 139.059 47.7337 140.126 48.6146C141.18 49.5111 141.796 50.6411 141.945 52.0211Z" fill="#FAC53E"/>
<path d="M131.329 49.0654C130.158 48.3952 129.379 47.4136 128.993 46.1204C128.606 44.8273 128.712 43.5761 129.326 42.3763C128.712 43.5761 127.776 44.4017 126.501 44.8437C125.226 45.2856 123.974 45.2269 122.746 44.6675C123.917 45.3377 124.696 46.3193 125.082 47.6125C125.274 48.2272 125.342 48.874 125.281 49.5152C125.221 50.1564 125.033 50.7792 124.73 51.3472C125.345 50.1474 126.28 49.3217 127.574 48.8892C128.849 48.4473 130.101 48.506 131.329 49.0654ZM133.838 33.5715C131.569 32.2691 130.057 30.3527 129.303 27.8222C128.548 25.2917 128.767 22.8636 129.968 20.5194C128.767 22.8636 126.924 24.4595 124.43 25.3254C121.935 26.1913 119.506 26.0653 117.096 24.9934C118.59 25.8523 119.775 26.9956 120.651 28.4698C121.518 29.9161 121.985 31.5069 122.061 33.2237C122.118 34.931 121.759 36.5414 120.965 38.092C122.166 35.7477 124.018 34.1334 126.513 33.2675C129.017 32.3831 131.455 32.4906 133.838 33.5715Z" fill="#FAC53E"/>
</g>
<g clip-path="url(#clip1_512_2467)">
<path d="M6.03246 79.7996C10.3466 77.2881 21.8757 70.3028 32.9078 61.5379C40.242 55.7095 43.8613 49.3869 49.42 44.9716C54.4534 40.9712 58.8371 38.8271 58.8371 38.8271L59.8215 40.1478L68.5339 33.2295L65.9651 29.7827C65.7584 29.4995 65.6684 29.1476 65.7136 28.7999C65.7589 28.4522 65.936 28.1351 66.2084 27.9142L66.9039 27.3603C66.9039 27.3603 59.7039 14.4736 48.2428 16.2866C46.9099 16.497 45.6852 16.9986 45.4027 16.6245C45.0219 16.1142 46.9302 14.5949 48.0463 13.7133C63.8656 1.24271 77.197 19.1707 77.2033 19.1805L77.8181 18.6914C77.9508 18.5839 78.1039 18.5045 78.2683 18.458C78.4326 18.4115 78.6047 18.3989 78.774 18.421C78.9434 18.443 79.1065 18.4993 79.2534 18.5863C79.4004 18.6733 79.5281 18.7893 79.6288 18.9272L91.4689 34.8135C91.6782 35.0961 91.7698 35.4489 91.7244 35.7976C91.679 36.1464 91.5002 36.4639 91.2254 36.6835C91.2254 36.6835 89.1724 39.396 93.4953 40.4948C95.2354 40.9382 96.2895 41.4805 96.8504 42.088C96.9146 42.1611 99.3918 45.4439 99.3918 45.4439C99.6007 45.7263 99.692 46.0788 99.6467 46.4271C99.6013 46.7755 99.4228 47.0928 99.1485 47.3124L87.5368 56.5394C87.4038 56.6463 87.2506 56.7252 87.0864 56.7713C86.9221 56.8175 86.7503 56.8299 86.5811 56.8079C86.4119 56.7859 86.2489 56.7298 86.102 56.6432C85.955 56.5565 85.8271 56.4411 85.726 56.3037C85.726 56.3037 83.2875 52.9899 83.2368 52.905C82.8119 52.1901 82.5724 50.9996 82.6071 49.149C82.6816 44.5513 79.6182 45.9111 79.6182 45.9111C79.4852 46.018 79.332 46.0969 79.1678 46.143C79.0035 46.1892 78.8316 46.2016 78.6625 46.1796C78.4933 46.1576 78.3303 46.1015 78.1834 46.0149C78.0364 45.9282 77.9085 45.8128 77.8074 45.6754L75.2386 42.2287L66.5276 49.1486L67.5119 50.4708C67.5119 50.4708 64.3845 54.2992 59.3466 58.299C53.7894 62.7145 46.947 64.7072 39.6128 70.5356C28.5839 79.2994 19.0887 89.0158 15.6292 92.6775C14.9924 93.3475 14.6289 93.6525 14.2899 93.6084C13.9301 93.5615 13.5952 93.1265 12.9941 92.3194L9.34217 87.4202L5.6915 82.5227C4.52166 80.949 4.40581 80.7517 6.03246 79.7996Z" fill="url(#paint2_linear_512_2467)"/>
</g>
<defs>
<linearGradient id="paint0_linear_512_2467" x1="-53" y1="-26" x2="356.5" y2="421.5" gradientUnits="userSpaceOnUse">
<stop stop-color="white"/>
<stop offset="1" stop-color="#0A0A0A"/>
</linearGradient>
<linearGradient id="paint1_linear_512_2467" x1="-42.5" y1="-24" x2="415.5" y2="384.5" gradientUnits="userSpaceOnUse">
<stop stop-color="white"/>
<stop offset="1" stop-color="#0A0A0A"/>
</linearGradient>
<linearGradient id="paint2_linear_512_2467" x1="215" y1="133.5" x2="43" y2="-10" gradientUnits="userSpaceOnUse">
<stop stop-color="#1F1F1F"/>
<stop offset="1" stop-color="white"/>
</linearGradient>
<clipPath id="clip0_512_2467">
<rect width="62.2214" height="62.2214" fill="white" transform="matrix(-0.520697 0.853742 0.853742 0.520697 129.879 0.336426)"/>
</clipPath>
<clipPath id="clip1_512_2467">
<rect width="95.5591" height="95.5591" fill="white" transform="matrix(-0.991632 -0.129098 -0.129098 0.991632 107.096 12.3364)"/>
</clipPath>
</defs>
</svg>
