<svg width="98" height="98" viewBox="0 0 98 98" fill="none" xmlns="http://www.w3.org/2000/svg">
<rect x="1" y="1" width="96" height="96" fill="#08090A"/>
<rect x="1" y="1" width="96" height="96" stroke="white" stroke-width="2"/>
<path d="M35.2695 34.4102L46.1094 60.3086C46.4219 61.0378 46.7604 61.5326 47.125 61.793C47.4896 62.0534 47.9714 62.1836 48.5703 62.1836H49.625V64H36.0703V62.1836H37.3398C38.3424 62.1836 39.0326 62.0729 39.4102 61.8516C39.7878 61.6302 39.9766 61.3372 39.9766 60.9727C39.9766 60.6862 39.8984 60.3542 39.7422 59.9766L37.4961 54.625H26.7148L25.6602 57.0664C25.2305 58.082 25.0156 58.8372 25.0156 59.332C25.0156 60.1784 25.3281 60.8685 25.9531 61.4023C26.5781 61.9232 27.431 62.1836 28.5117 62.1836H29.4297V64H18.4727V62.1836H19.0977C19.8008 62.1836 20.4193 61.9622 20.9531 61.5195C21.7083 60.8945 22.2943 60.0938 22.7109 59.1172L33.082 34.4102H35.2695ZM32.125 41.7148L27.5156 52.7109H36.6953L32.125 41.7148ZM51.168 35.1133H76.6562L76.9492 45.0742H75.1914C74.8789 42.0013 74.1562 39.8789 73.0234 38.707C71.9036 37.5221 70.1719 36.9297 67.8281 36.9297H63.5508C62.9258 36.9297 62.4701 37.0599 62.1836 37.3203C61.8971 37.5807 61.7539 37.9518 61.7539 38.4336V48.1016H63.3164C66.4284 48.1016 68.2253 46.2526 68.707 42.5547H70.4062V55.8945H68.707C68.6549 54.4622 68.4206 53.3359 68.0039 52.5156C67.5872 51.6823 67.0078 51.0312 66.2656 50.5625C65.5365 50.0938 64.6901 49.8594 63.7266 49.8594H61.7539V60.3867C61.7539 60.9466 61.9036 61.3568 62.2031 61.6172C62.6328 61.9948 63.1406 62.1836 63.7266 62.1836H66.4609V64H51.168V62.1836H53.7266C54.3255 62.1836 54.7878 62.0273 55.1133 61.7148C55.4388 61.3893 55.6016 60.9857 55.6016 60.5039V38.4336C55.6016 37.8737 55.4388 37.4831 55.1133 37.2617C54.8008 37.0404 54.1497 36.9297 53.1602 36.9297H51.168V35.1133Z" fill="white"/>
</svg>
